<?xml version="1.0" encoding="UTF-8" standalone="no"?>
<!DOCTYPE svg PUBLIC "-//W3C//DTD SVG 1.1//EN" "http://www.w3.org/Graphics/SVG/1.1/DTD/svg11.dtd">
<svg version="1.1" xmlns="http://www.w3.org/2000/svg" xmlns:xlink="http://www.w3.org/1999/xlink" preserveAspectRatio="xMidYMid meet" viewBox="0 0 640 640" width="640" height="640"><defs><path d="M68.01 634.75C84.6 634.75 100.4 628.43 113.04 615.79C117.73 611.1 141.17 587.66 183.36 545.47C190 552.11 193.69 555.8 194.42 556.53C196 558.11 197.58 558.9 199.95 558.9C202.32 558.9 203.9 558.11 205.49 556.53C210.23 551.79 248.15 513.87 252.89 509.13C256.05 505.97 256.05 501.23 252.89 498.07C251.52 496.7 244.67 489.85 232.35 477.52L320.05 405.63L407.75 477.52C395.43 489.85 388.58 496.7 387.21 498.07C384.05 501.23 384.05 505.97 387.21 509.13C391.95 513.87 429.87 551.79 434.61 556.53C436.19 558.11 437.78 558.9 440.15 558.9C442.52 558.9 444.1 558.11 445.68 556.53C446.41 555.8 450.1 552.11 456.74 545.47C498.93 587.66 522.37 611.1 527.06 615.79C539.7 628.43 555.5 634.75 572.09 634.75C588.68 634.75 604.49 628.43 617.13 615.79C641.62 591.3 641.62 551 617.13 525.72C612.44 521.03 589 497.59 546.81 455.4C553.45 448.76 557.13 445.08 557.87 444.34C561.03 441.18 561.03 436.44 557.87 433.28C553.13 428.54 515.21 390.61 510.46 385.87C508.88 384.29 507.3 383.5 504.93 383.5C502.56 383.5 500.98 384.29 499.4 385.87C497.98 387.29 490.87 394.41 478.07 407.21L414.07 328.2C543.96 221.06 616.13 161.54 630.56 149.63C633.72 147.26 634.51 142.52 632.14 139.36C598.17 91.16 610.02 39.81 610.02 39.81C610.81 37.44 610.02 34.28 607.65 32.7C607.49 32.54 606.22 31.27 606.07 31.12C604.49 29.54 601.33 28.75 598.96 28.75C598.17 28.75 547.6 40.6 499.4 6.62C496.24 4.25 491.5 5.04 489.13 8.2C477.91 21.9 421.82 90.37 320.84 213.63C219.87 90.37 163.77 21.9 152.55 8.2C150.18 5.04 145.44 4.25 142.28 6.62C92.5 39.81 41.93 28.75 41.14 28.75C38.77 27.96 35.61 28.75 34.03 31.12C33.88 31.27 32.61 32.54 32.45 32.7C30.87 34.28 30.08 37.44 30.08 39.81C30.08 40.6 41.14 91.16 7.96 139.36C5.59 142.52 6.38 147.26 9.54 149.63C23.97 161.54 96.14 221.06 226.03 328.2L161.24 407.21C148.44 394.41 141.33 387.29 139.91 385.87C136.75 382.71 132.01 382.71 128.85 385.87C124.1 390.61 86.18 428.54 81.44 433.28C78.28 436.44 78.28 441.18 81.44 444.34C82.18 445.08 85.86 448.76 92.5 455.4C50.31 497.59 26.87 521.03 22.18 525.72C-1.52 551 -1.52 591.3 22.97 615.79C35.61 628.43 51.42 634.75 68.01 634.75ZM202.32 447.5L278.17 371.65L307.41 395.35L221.29 466.46L202.32 447.5ZM606.07 603.94C587.1 622.9 557.08 622.9 538.91 603.94C534.17 599.31 510.46 576.13 467.8 534.41L496.24 505.97C534.17 543.89 555.24 564.96 559.45 569.18C561.03 570.76 563.4 571.55 564.98 571.55C566.56 571.55 568.93 570.76 570.51 569.18C573.67 566.02 573.67 561.28 570.51 558.11C566.3 553.9 545.23 532.83 507.3 494.91L535.75 466.46L606.07 536.78C618.71 569.44 618.71 591.83 606.07 603.94ZM541.28 438.81C534.64 445.45 530.95 449.13 530.22 449.87C530.22 449.87 530.22 449.87 530.22 449.87C530.22 449.87 530.22 449.87 530.22 449.87C522.32 457.77 459.11 520.98 451.21 528.88C451.21 528.88 451.21 528.88 451.21 528.88C451.21 528.88 451.21 528.88 451.21 528.88C450.47 529.62 446.78 533.31 440.15 539.94L403.8 503.6L504.93 402.46L541.28 438.81ZM593.43 45.34C591.05 62.72 590.26 102.23 615.55 142.52C601.48 154.11 531.17 212.05 404.59 316.34L372.99 277.63C461.64 188.98 510.89 139.73 520.74 129.88C523.9 126.72 523.9 121.98 520.74 118.82C517.58 115.66 512.83 115.66 509.67 118.82C499.88 128.56 450.89 177.29 362.72 264.99L330.32 225.48L496.24 23.22C548.92 39.54 581.31 46.92 593.43 45.34ZM143.86 23.22C165.4 49.5 273.12 180.92 467.01 417.48L448.84 435.65C258.26 245.55 152.39 139.94 131.22 118.82C128.06 115.66 123.31 115.66 120.15 118.82C116.99 121.98 116.99 126.72 120.15 129.88C141.33 151.05 247.2 256.93 437.78 447.5L418.81 466.46C182.26 272.1 50.84 164.12 24.55 142.52C49.84 103.02 49.04 63.51 46.67 45.34C64.06 47.71 103.56 48.5 143.86 23.22ZM266.32 361.38L191.26 436.44L173.09 418.27L237.88 338.47L266.32 361.38ZM236.3 503.6L199.95 539.94L98.82 438.81L135.17 402.46L236.3 503.6ZM132.8 494.91C94.87 532.83 73.8 553.9 69.59 558.11C66.43 561.28 66.43 566.02 69.59 569.18C71.17 570.76 73.54 571.55 75.12 571.55C76.7 571.55 79.07 570.76 80.65 569.18C84.86 564.96 105.93 543.89 143.86 505.97L172.3 534.41C130.11 576.6 106.67 600.04 101.98 604.73C83.02 623.69 53 623.69 34.82 604.73C15.86 585.77 15.86 555.74 34.82 537.57C39.46 532.83 62.63 509.13 104.35 466.46L132.8 494.91Z" id="a1pRXQ39W5"></path></defs><g><g><g><use xlink:href="#a1pRXQ39W5" opacity="1" fill-opacity="1"></use><g><use xlink:href="#a1pRXQ39W5" opacity="1" fill-opacity="0" stroke-width="4" stroke-opacity="0"></use></g></g></g></g></svg>